<?xml version="1.0" encoding="UTF-8"?>
<svg width="763px" height="212px" viewBox="0 0 763 212" version="1.1" xmlns="http://www.w3.org/2000/svg" xmlns:xlink="http://www.w3.org/1999/xlink">
    <title>Email Banner@1x</title>
    <defs>
        <linearGradient x1="50%" y1="0%" x2="50%" y2="100%" id="linearGradient-1">
            <stop stop-color="#F99777" offset="0%"></stop>
            <stop stop-color="#623AA2" offset="100%"></stop>
        </linearGradient>
    </defs>
    <g id="Email-Banner" stroke="none" stroke-width="1" fill="none" fill-rule="evenodd">
        <rect id="Rectangle" fill="url(#linearGradient-1)" x="0" y="0" width="763" height="212" rx="15"></rect>
        <path d="M538.663574,77.7910156 C545.047038,77.7910156 550.464355,80.2926432 554.915527,85.2958984 C559.366699,90.2991536 561.592285,97.2692057 561.592285,106.206055 C561.592285,115.38444 559.349447,122.518392 554.86377,127.60791 C550.378092,132.697428 544.943522,135.242188 538.560059,135.242188 C535.5236,135.242188 532.77181,134.638346 530.304688,133.430664 C527.837565,132.222982 525.241048,130.152669 522.515137,127.219727 L522.515137,154.910156 L507.971191,154.910156 L507.971191,79.0332031 L521.531738,79.0332031 L521.531738,87.1074219 C523.291504,84.3470052 525.672363,82.1041667 528.674316,80.3789062 C531.67627,78.6536458 535.006022,77.7910156 538.663574,77.7910156 Z M127.033691,106.102539 L141.888184,110.8125 C139.61084,119.09375 135.823893,125.244303 130.527344,129.26416 C125.230794,133.284017 118.510905,135.293945 110.367676,135.293945 C108.522847,135.293945 106.738172,135.178554 105.013652,134.94777 L108.685463,122.145433 C109.185326,122.18129 109.694306,122.199219 110.212402,122.199219 C114.284017,122.199219 117.786296,120.905273 120.719238,118.317383 C123.652181,115.729492 125.756999,111.657878 127.033691,106.102539 Z M240.64209,77.7910156 C248.819824,77.7910156 255.272298,80.4910482 259.999512,85.8911133 C264.726725,91.2911784 266.986816,99.5638021 266.779785,110.708984 L230.342285,110.708984 C230.445801,115.022135 231.618978,118.377767 233.861816,120.775879 C236.104655,123.173991 238.899577,124.373047 242.246582,124.373047 C244.523926,124.373047 246.438965,123.751953 247.991699,122.509766 C249.544434,121.267578 250.717611,119.266276 251.51123,116.505859 L266.003418,118.938477 C264.140137,124.252279 261.198568,128.298014 257.178711,131.075684 C253.158854,133.853353 248.12972,135.242188 242.091309,135.242188 C232.533366,135.242188 225.459798,132.119466 220.870605,125.874023 C217.247559,120.870768 215.436035,114.556315 215.436035,106.930664 C215.436035,97.8212891 217.816895,90.6873372 222.578613,85.5288086 C227.340332,80.3702799 233.361491,77.7910156 240.64209,77.7910156 Z M470.39502,77.7910156 C478.572754,77.7910156 485.025228,80.4910482 489.752441,85.8911133 C494.479655,91.2911784 496.739746,99.5638021 496.532715,110.708984 L460.095215,110.708984 C460.19873,115.022135 461.371908,118.377767 463.614746,120.775879 C465.857585,123.173991 468.652507,124.373047 471.999512,124.373047 C474.276855,124.373047 476.191895,123.751953 477.744629,122.509766 C479.297363,121.267578 480.47054,119.266276 481.26416,116.505859 L495.756348,118.938477 C493.893066,124.252279 490.951497,128.298014 486.931641,131.075684 C482.911784,133.853353 477.88265,135.242188 471.844238,135.242188 C462.286296,135.242188 455.212728,132.119466 450.623535,125.874023 C447.000488,120.870768 445.188965,114.556315 445.188965,106.930664 C445.188965,97.8212891 447.569824,90.6873372 452.331543,85.5288086 C457.093262,80.3702799 463.114421,77.7910156 470.39502,77.7910156 Z M626.030762,77.7910156 C632.724772,77.7910156 638.047201,79.2316081 641.998047,82.112793 C645.948893,84.9939779 648.786947,89.3847656 650.512207,95.2851562 L636.175293,97.8730469 C635.69222,95.0091146 634.59668,92.8525391 632.888672,91.4033203 C631.180664,89.9541016 628.963704,89.2294922 626.237793,89.2294922 C622.614746,89.2294922 619.724935,90.480306 617.568359,92.9819336 C615.411784,95.4835612 614.333496,99.6673177 614.333496,105.533203 C614.333496,112.054688 615.429036,116.661133 617.620117,119.352539 C619.811198,122.043945 622.752767,123.389648 626.444824,123.389648 C629.205241,123.389648 631.465332,122.604655 633.225098,121.034668 C634.984863,119.464681 636.227051,116.764648 636.95166,112.93457 L651.236816,115.367188 C649.753092,121.923177 646.906413,126.874674 642.696777,130.22168 C638.487142,133.568685 632.84554,135.242188 625.771973,135.242188 C617.732259,135.242188 611.322917,132.706055 606.543945,127.633789 C601.764974,122.561523 599.375488,115.539714 599.375488,106.568359 C599.375488,97.4934896 601.7736,90.4285482 606.569824,85.3735352 C611.366048,80.3185221 617.853027,77.7910156 626.030762,77.7910156 Z M676.805176,59.6240234 L676.805176,79.0332031 L686.742676,79.0332031 L686.742676,90.6269531 L676.805176,90.6269531 L676.805437,113.181929 C676.811014,117.421665 676.905816,119.901224 677.089844,120.620605 C677.279622,121.362467 677.710938,121.974935 678.383789,122.458008 C679.056641,122.941081 679.876139,123.182617 680.842285,123.182617 C682.187988,123.182617 684.137533,122.716797 686.690918,121.785156 L687.933105,133.068359 C684.551595,134.517578 680.721517,135.242188 676.442871,135.242188 C673.820475,135.242188 671.456868,134.802246 669.352051,133.922363 C667.247233,133.04248 665.703125,131.903809 664.719727,130.506348 C663.736328,129.108887 663.05485,127.219727 662.675293,124.838867 C662.374764,123.202652 662.219652,119.950689 662.209957,115.082977 L662.209473,90.6269531 L655.532715,90.6269531 L655.532715,79.0332031 L662.209473,79.0332031 L662.209473,68.1123047 L676.805176,59.6240234 Z M169.42334,58.1230469 L169.42334,86.0205078 C174.116048,80.5341797 179.723145,77.7910156 186.244629,77.7910156 C189.591634,77.7910156 192.61084,78.4121094 195.302246,79.6542969 C197.993652,80.8964844 200.020833,82.483724 201.383789,84.4160156 C202.746745,86.3483073 203.678385,88.4876302 204.178711,90.8339844 C204.679036,93.1803385 204.929199,96.820638 204.929199,101.754883 L204.929199,134 L190.385254,134 L190.384578,104.475104 C190.369255,98.9942126 190.093438,95.4995815 189.557129,93.9912109 C189.005046,92.4384766 188.030273,91.2049154 186.632812,90.2905273 C185.235352,89.3761393 183.484212,88.9189453 181.379395,88.9189453 C178.96403,88.9189453 176.807454,89.5055339 174.909668,90.6787109 C173.011882,91.851888 171.623047,93.6202799 170.743164,95.9838867 C169.863281,98.3474935 169.42334,101.841146 169.42334,106.464844 L169.42334,134 L154.879395,134 L154.879395,58.1230469 L169.42334,58.1230469 Z M340.379395,77.7910156 C344.416504,77.7910156 347.83252,78.6105143 350.627441,80.2495117 C353.422363,81.8885091 355.509928,84.2952474 356.890137,87.4697266 C357.890788,89.8160807 358.391113,93.6116536 358.391113,98.8564453 L358.391113,134 L343.847168,134 L343.847168,102.583008 C343.847168,97.1311849 343.346842,93.6116536 342.346191,92.0244141 C341.000488,89.9541016 338.930176,88.9189453 336.135254,88.9189453 C334.099447,88.9189453 332.184408,89.5400391 330.390137,90.7822266 C328.595866,92.0244141 327.301921,93.8445638 326.508301,96.2426758 C325.714681,98.6407878 325.317871,102.427734 325.317871,107.603516 L325.317871,134 L310.773926,134 L310.773926,103.876953 C310.773926,98.5286458 310.515137,95.078125 309.997559,93.5253906 C309.47998,91.9726562 308.677734,90.8167318 307.59082,90.0576172 C306.503906,89.2985026 305.028809,88.9189453 303.165527,88.9189453 C300.922689,88.9189453 298.904134,89.5227865 297.109863,90.7304688 C295.315592,91.938151 294.030273,93.6806641 293.253906,95.9580078 C292.477539,98.2353516 292.089355,102.013672 292.089355,107.292969 L292.089355,134 L277.54541,134 L277.54541,79.0332031 L290.950684,79.0332031 L290.950684,86.5380859 C295.746908,80.7067057 301.45752,77.7910156 308.08252,77.7910156 C311.602051,77.7910156 314.655762,78.515625 317.243652,79.9648438 C319.831543,81.4140625 321.953613,83.6051432 323.609863,86.5380859 C326.025228,83.6051432 328.630371,81.4140625 331.425293,79.9648438 C334.220215,78.515625 337.204915,77.7910156 340.379395,77.7910156 Z M400.936035,58.1230469 C404.150746,58.1230469 406.976424,58.2482529 409.41307,58.4986648 L405.723363,71.3661762 C403.349005,71.094715 399.820938,70.9589844 395.13916,70.9589844 L388.255371,70.9589844 L388.255371,121.21582 L391.427457,121.215102 L387.761457,133.999102 L372.935059,134 L372.935059,58.1230469 Z M587.678223,79.0332031 L587.678223,134 L573.134277,134 L573.134277,79.0332031 L587.678223,79.0332031 Z M421.803474,62.4440884 C423.620984,63.5814774 425.291473,64.9533047 426.814941,66.5595703 C429.989421,69.9065755 432.404785,74.004069 434.061035,78.8520508 C435.717285,83.7000326 436.54541,89.6780599 436.54541,96.7861328 C436.54541,103.031576 435.769043,108.414388 434.216309,112.93457 C432.318522,118.455404 429.609863,122.923828 426.090332,126.339844 C423.433431,128.927734 419.844889,130.946289 415.324707,132.395508 C411.943197,133.465169 407.423014,134 401.76416,134 L401.285457,133.999102 L405.000487,121.051209 C406.524989,120.939561 407.769572,120.771117 408.734238,120.545878 L408.958496,120.491211 C411.442871,119.870117 413.504557,118.817708 415.143555,117.333984 C416.782552,115.85026 418.119629,113.409017 419.154785,110.010254 C420.189941,106.611491 420.70752,101.979167 420.70752,96.1132812 C420.70752,90.2473958 420.189941,85.7444661 419.154785,82.6044922 C418.626762,81.0028229 417.991004,79.5807131 417.24751,78.3381627 Z M111.299316,56.8291016 C112.171743,56.8291016 113.028776,56.8533362 113.870414,56.9018054 L110.134914,69.9270589 C104.68836,70.0181542 100.254391,72.0356319 96.8330078,75.9794922 C93.3307292,80.0166016 91.5795898,86.5553385 91.5795898,95.5957031 C91.5795898,105.188151 93.3048503,112.020182 96.7553711,116.091797 C96.7908432,116.133654 96.8264247,116.175296 96.8621156,116.216723 L92.6926435,130.754538 C90.0993466,129.216578 87.709774,127.287819 85.5239258,124.968262 C79.0369466,118.084473 75.793457,108.673177 75.793457,96.734375 C75.793457,84.1054688 79.0541992,74.2973633 85.5756836,67.3100586 C92.097168,60.3227539 100.671712,56.8291016 111.299316,56.8291016 Z M534.72998,89.28125 C531.175944,89.28125 528.225749,90.652832 525.879395,93.3959961 C523.53304,96.1391602 522.359863,100.202148 522.359863,105.584961 C522.359863,111.761393 523.584798,116.324707 526.034668,119.274902 C528.484538,122.225098 531.469238,123.700195 534.98877,123.700195 C538.37028,123.700195 541.182454,122.345866 543.425293,119.637207 C545.668132,116.928548 546.789551,112.486003 546.789551,106.30957 C546.789551,100.547201 545.633626,96.2685547 543.321777,93.4736328 C541.009928,90.6787109 538.145996,89.28125 534.72998,89.28125 Z M241.521973,88.9189453 C238.347493,88.9189453 235.725098,90.0748698 233.654785,92.3867188 C231.584473,94.6985677 230.566569,97.8385417 230.601074,101.806641 L252.339355,101.806641 C252.23584,97.5970052 251.148926,94.3966471 249.078613,92.2055664 C247.008301,90.0144857 244.489421,88.9189453 241.521973,88.9189453 Z M471.274902,88.9189453 C468.100423,88.9189453 465.478027,90.0748698 463.407715,92.3867188 C461.337402,94.6985677 460.319499,97.8385417 460.354004,101.806641 L482.092285,101.806641 C481.98877,97.5970052 480.901855,94.3966471 478.831543,92.2055664 C476.76123,90.0144857 474.24235,88.9189453 471.274902,88.9189453 Z M126.513292,59.973024 C129.235514,61.2681022 131.703577,62.9632921 133.91748,65.0585938 C137.368001,68.3020833 139.955892,72.9602865 141.681152,79.0332031 L126.516113,82.65625 C125.776924,79.4151904 124.375979,76.7363308 122.313277,74.6196714 Z M587.678223,58.1230469 L587.678223,71.5800781 L573.134277,71.5800781 L573.134277,58.1230469 L587.678223,58.1230469 Z" id="Combined-Shape" fill-opacity="0.8" fill="#04006D"></path>
    </g>
</svg>