<?xml version="1.0" encoding="UTF-8"?>
<svg width="48px" height="48px" viewBox="0 0 48 48" version="1.1" xmlns="http://www.w3.org/2000/svg" xmlns:xlink="http://www.w3.org/1999/xlink">
    <title>48x48</title>
    <defs>
        <linearGradient x1="91.0008201%" y1="84.7592531%" x2="19.5715973%" y2="15.7414198%" id="linearGradient-1">
            <stop stop-color="#F99777" offset="0%"></stop>
            <stop stop-color="#623AA2" offset="100%"></stop>
        </linearGradient>
    </defs>
    <g id="48x48" stroke="none" stroke-width="1" fill="none" fill-rule="evenodd">
        <rect id="Rectangle" fill="url(#linearGradient-1)" x="0" y="0" width="48" height="48" rx="8"></rect>
        <path d="M18.090332,27.1044922 L22.2944336,28.4375 C21.6499023,30.78125 20.578125,32.5219727 19.0791016,33.659668 C17.5800781,34.7973633 15.6782227,35.3662109 13.3735352,35.3662109 C12.5875843,35.3662109 11.8402105,35.2922099 11.1314136,35.1442078 L12.1643956,31.5420602 C12.5327774,31.6207909 12.9211755,31.6601562 13.3295898,31.6601562 C14.4819336,31.6601562 15.4731445,31.2939453 16.3032227,30.5615234 C17.1333008,29.8291016 17.7290039,28.6767578 18.090332,27.1044922 Z M13.637207,13.1591797 C14.2234194,13.1591797 14.7850737,13.1978406 15.3221696,13.2751625 L14.2745294,16.929549 C14.0003776,16.8866726 13.7146946,16.8652344 13.4174805,16.8652344 C11.8256836,16.8652344 10.5341797,17.4365234 9.54296875,18.5791016 C8.55175781,19.7216797 8.05615234,21.5722656 8.05615234,24.1308594 C8.05615234,26.8457031 8.54443359,28.7792969 9.52099609,29.9316406 C9.77001953,30.2254883 10.0380933,30.4818704 10.3252173,30.7007869 L9.22745162,34.5273297 C8.15629381,34.0427627 7.19457166,33.3482687 6.34228516,32.4438477 C4.50634766,30.4956055 3.58837891,27.8320312 3.58837891,24.453125 C3.58837891,20.8789062 4.51123047,18.1030273 6.35693359,16.1254883 C8.20263672,14.1479492 10.6293945,13.1591797 13.637207,13.1591797 Z M17.2632196,13.7618485 C18.3073851,14.1499151 19.2325033,14.7253927 20.0385742,15.4882812 C21.0151367,16.40625 21.7475586,17.7246094 22.2358398,19.4433594 L17.9438477,20.46875 C17.6899414,19.3554688 17.1601562,18.4765625 16.3544922,17.8320312 C16.2848319,17.776303 16.2138757,17.722984 16.1416236,17.6720742 Z" id="Combined-Shape" fill="#04006D"></path>
        <path d="M34.2602539,13.5253906 C35.4194202,13.5253906 36.3998643,13.5829104 37.2015861,13.69795 L36.1533113,17.357554 C35.5402446,17.2246534 34.3623505,17.1582031 32.6196289,17.1582031 L30.6713867,17.1582031 L30.6713867,31.3818359 L32.1294492,31.3813906 L31.0924492,34.9993906 L26.3354492,35 L26.3354492,13.5253906 Z M39.1339843,14.2145684 C40.0621978,14.6031286 40.8790272,15.1693011 41.5844727,15.9130859 C42.4829102,16.8603516 43.1665039,18.0200195 43.6352539,19.3920898 C44.1040039,20.7641602 44.3383789,22.4560547 44.3383789,24.4677734 C44.3383789,26.2353516 44.1186523,27.7587891 43.6791992,29.0380859 C43.1420898,30.6005859 42.3754883,31.8652344 41.3793945,32.8320312 C40.6274414,33.5644531 39.6118164,34.1357422 38.3325195,34.5458984 C37.3754883,34.8486328 36.0961914,35 34.4946289,35 L33.1724492,34.9993906 L34.2115686,31.3803402 C35.1703422,31.3706343 35.8963078,31.313692 36.3894653,31.2095133 L36.5307617,31.1767578 C37.2338867,31.0009766 37.8173828,30.703125 38.28125,30.2832031 C38.7451172,29.8632812 39.1235352,29.1723633 39.4165039,28.2104492 C39.7094727,27.2485352 39.855957,25.9375 39.855957,24.2773438 C39.855957,22.6171875 39.7094727,21.3427734 39.4165039,20.4541016 C39.1235352,19.5654297 38.7133789,18.8720703 38.1860352,18.3740234 C38.1228398,18.3143389 38.0576109,18.2569685 37.9903485,18.201912 Z" id="Combined-Shape" fill="#04006D"></path>
    </g>
</svg>